<svg version="1.2" xmlns="http://www.w3.org/2000/svg" viewBox="0 0 1291 550" width="1291" height="550">
	<title>28e0e0aa18875b05c4c927339a03679ea68a81f3-ai</title>
	<style>
		.s0 { fill: #fefefe } 
		.s1 { fill: #fbfbfb } 
		.s2 { fill: none } 
	</style>
	<g id="Calque 1">
		<g id="Dossier 1">
			<path id="&lt;Compound Path&gt;" fill-rule="evenodd" class="s0" d="m335.4 248.5v49.1c0 11.6-6.2 22.4-16.3 28.3l-42.2 24.5c-5 2.9-10.6 4.4-16.3 4.4-5.6 0-11.2-1.5-16.2-4.4l-42.2-24.5c-10.1-5.9-16.3-16.7-16.3-28.3v-49.1c0-11.7 6.2-22.5 16.3-28.3l42.2-24.6c5-2.9 10.6-4.3 16.2-4.3 5.7 0 11.3 1.4 16.3 4.3l42.2 24.6c10.1 5.8 16.3 16.6 16.3 28.3zm-17.3 0c0-5.5-2.9-10.6-7.6-13.3l-42.2-24.5c-2.3-1.4-5-2.1-7.7-2.1-2.6 0-5.3 0.7-7.6 2.1l-42.2 24.5c-4.7 2.7-7.6 7.8-7.6 13.3v49.1c0 5.4 2.9 10.5 7.6 13.3l42.2 24.5c2.3 1.3 5 2 7.6 2 2.7 0 5.4-0.7 7.7-2l42.2-24.5c4.7-2.8 7.6-7.9 7.6-13.3z"/>
			<path id="&lt;Path&gt;" class="s1" d="m466.3 297.4c-0.1 0.2-14.3 14.3-32.8 14.3-22.6 0-34.4-17.5-34.4-34.7 0-19.8 14.1-34.2 33.5-34.2 17.2 0 28.9 11.8 29 12l1.3 1.3 14.2-22.1-0.7-0.9c-0.6-0.7-15-17.7-45.4-17.7-37.1 0-64.1 26-64.1 61.8 0 35.8 27 61.8 64.1 61.8 31.3 0 47.9-18.4 48.6-19.2l0.7-0.8-12.6-23z"/>
			<path id="&lt;Compound Path&gt;" fill-rule="evenodd" class="s1" d="m592.2 262.8v73.5h-29.4v-11q0-1.4 0.1-2.6c-1.4 1.8-3.2 3.9-5.4 6-5.2 4.7-14.3 10.3-28.2 10.3-20.2 0-40.6-12.8-40.6-37.4 0-35.3 43.7-40.6 69.7-40.6l2.4-0.1c0-12.6-6.8-18.8-20.7-18.8-15.8 0-30.6 10.7-30.7 10.8l-1.4 1-12.2-23.2 0.9-0.7c0.8-0.6 18.6-14.6 46.1-14.6 31.4 0 49.4 17.3 49.4 47.4zm-31.2 20.9h-3.5c-16.8 0-36.9 2.9-36.9 16.6 0 6.6 4.9 13.4 15.9 13.4 14 0 24.5-15.2 24.5-28.8z"/>
			<path id="&lt;Path&gt;" class="s1" d="m684.7 216.5c-14.6 0-28 9.2-35.1 23.5q0-0.3 0-0.5v-21.4h-30.5v118.2h31.6v-47.1c0-7.2 0.8-13.2 2.4-18.3 5.4-17.1 19.1-23.1 30-23.1 3.7 0 6.6 0.4 6.6 0.4l1.7 0.2v-31.2l-1.2-0.2c-0.1 0-2.7-0.5-5.5-0.5z"/>
			<path id="&lt;Compound Path&gt;" fill-rule="evenodd" class="s1" d="m825.1 277.2c0 36.4-22.3 61.8-54.3 61.8-17.9 0-28.4-9.1-33-14.3q0.1 1.6 0.1 3.6v8h-30.1v-163.4h31.7v51c0 2.1 0 4-0.1 5.5 4.5-5.1 15-14 33.2-14 31.4 0 52.5 24.8 52.5 61.8zm-31.9 0.5c0-20.8-10.9-34.7-27.2-34.7-13.2 0-27.4 9.2-27.4 34.9 0 16.4 8.5 34 27.2 34 16.4 0 27.4-13.8 27.4-34.2z"/>
			<path id="&lt;Compound Path&gt;" fill-rule="evenodd" class="s1" d="m967 277.2c0 35.3-27.8 61.8-64.7 61.8-37.1 0-65-26.5-65-61.8 0-35.2 27.8-61.8 64.7-61.8 37.1 0 65 26.6 65 61.8zm-32.1 0c0-19.6-14-34.4-32.6-34.4-18.8 0-32.9 14.8-32.9 34.4 0 19.6 14.1 34.5 32.9 34.5 18.6 0 32.6-14.9 32.6-34.5z"/>
			<path id="&lt;Path&gt;" class="s0" d="m1057 215.4c-22.1 0-34.1 12.3-39.4 20.2q0-1.3 0-2.7v-14.8h-30.5v118.2h31.6v-54.3c0-6.2 0.7-10.9 2-15 4.3-13.8 15.6-22.4 29.5-22.4 12 0 16.9 6.4 16.9 22v69.7h31.4v-75.6c0-30-14-45.3-41.5-45.3z"/>
			<path id="&lt;Compound Path&gt;" fill-rule="evenodd" class="s2" d="m335.4 74.1v49c0 11.7-6.2 22.5-16.3 28.4l-42.2 24.5c-5 2.9-10.6 4.4-16.3 4.4-5.6 0-11.2-1.5-16.2-4.4l-42.2-24.5c-10.1-5.9-16.3-16.7-16.3-28.4v-49c0-11.7 6.2-22.5 16.3-28.4l42.2-24.5c5-2.9 10.6-4.4 16.2-4.4 5.7 0 11.3 1.5 16.3 4.4l42.2 24.5c10.1 5.9 16.3 16.7 16.3 28.4zm-17.3 0c0-5.5-2.9-10.6-7.6-13.3l-42.2-24.5c-2.3-1.4-5-2.1-7.7-2.1-2.6 0-5.3 0.7-7.6 2.1l-42.2 24.5c-4.7 2.7-7.6 7.8-7.6 13.3v49c0 5.5 2.9 10.6 7.6 13.3l42.2 24.5c2.3 1.4 5 2.1 7.6 2.1 2.7 0 5.4-0.7 7.7-2.1l42.2-24.5c4.7-2.7 7.6-7.8 7.6-13.3z"/>
			<path id="&lt;Compound Path&gt;" fill-rule="evenodd" class="s2" d="m171.6 252.9v49.1c0 11.7-6.2 22.5-16.3 28.3l-42.1 24.5c-5.1 2.9-10.7 4.4-16.3 4.4-5.6 0-11.2-1.5-16.3-4.4l-42.2-24.5c-10-5.8-16.2-16.6-16.2-28.3v-49.1c0-11.7 6.2-22.5 16.2-28.3l42.2-24.5c5.1-3 10.7-4.4 16.3-4.4 5.6 0 11.2 1.4 16.3 4.4l42.1 24.5c10.1 5.8 16.3 16.6 16.3 28.3zm-17.2 0c0-5.4-3-10.5-7.7-13.3l-42.2-24.5c-2.3-1.3-4.9-2.1-7.6-2.1-2.7 0-5.3 0.8-7.6 2.1l-42.2 24.5c-4.7 2.8-7.7 7.9-7.7 13.3v49.1c0 5.4 3 10.5 7.7 13.3l42.2 24.5c2.3 1.3 4.9 2 7.6 2 2.7 0 5.3-0.7 7.6-2l42.2-24.5c4.7-2.8 7.7-7.9 7.7-13.3z"/>
			<path id="&lt;Compound Path&gt;" fill-rule="evenodd" class="s2" d="m335.4 427.1v49c0 11.7-6.2 22.5-16.3 28.4l-42.2 24.5c-5 2.9-10.6 4.4-16.3 4.4-5.6 0-11.2-1.5-16.2-4.4l-42.2-24.5c-10.1-5.9-16.3-16.7-16.3-28.4v-49c0-11.7 6.2-22.5 16.3-28.3l42.2-24.6c5-2.9 10.6-4.4 16.2-4.4 5.7 0 11.3 1.5 16.3 4.4l42.2 24.6c10.1 5.8 16.3 16.6 16.3 28.3zm-17.3 0c0-5.5-2.9-10.6-7.6-13.3l-42.2-24.5c-2.3-1.4-5-2.1-7.7-2.1-2.6 0-5.3 0.7-7.6 2.1l-42.2 24.5c-4.7 2.7-7.6 7.8-7.6 13.3v49c0 5.5 2.9 10.6 7.6 13.3l42.2 24.5c2.3 1.4 5 2.1 7.6 2.1 2.7 0 5.4-0.7 7.7-2.1l42.2-24.5c4.7-2.7 7.6-7.8 7.6-13.3z"/>
			<path id="&lt;Compound Path&gt;" fill-rule="evenodd" class="s2" d="m1268 252.9v49.1c0 11.7-6.2 22.5-16.3 28.3l-42.2 24.5c-5 2.9-10.6 4.4-16.2 4.4-5.6 0-11.2-1.5-16.3-4.4l-42.2-24.5c-10-5.8-16.2-16.6-16.2-28.3v-49.1c0-11.7 6.2-22.5 16.2-28.3l42.2-24.5c5.1-3 10.7-4.4 16.3-4.4 5.6 0 11.2 1.4 16.2 4.4l42.2 24.5c10.1 5.8 16.3 16.6 16.3 28.3zm-17.3 0c0-5.4-2.9-10.5-7.6-13.3l-42.2-24.5c-2.3-1.3-4.9-2.1-7.6-2.1-2.7 0-5.3 0.8-7.7 2.1l-42.2 24.5c-4.7 2.8-7.6 7.9-7.6 13.3v49.1c0 5.4 2.9 10.5 7.6 13.3l42.2 24.5c2.4 1.3 5 2 7.7 2 2.7 0 5.3-0.7 7.6-2l42.2-24.5c4.7-2.8 7.6-7.9 7.6-13.3z"/>
		</g>
	</g>
</svg>